<?xml version="1.0" encoding="UTF-8" standalone="no"?>
<svg xmlns="http://www.w3.org/2000/svg" viewBox="0 0 277.59448 111.57756" version="1.1" id="svg" xml:space="preserve">
  <metadata id="metadata">© 2025 Chris Caron. All rights reserved. Apprise logo and associated marks. https://github.com/caronc/apprise</metadata>
  <defs id="defs"/>
  <g id="apprise-logo" fill="#2cb6a6" stroke="none">
    <g id="waves" fill="#9ca3af">
      <path d="M 58.5161 1.51744e-05 L 58.5161 0.249673 C 65.5093 1.23163 72.8492 4.66497 79.1067 7.92743 C 86.2234 11.6378 93.0347 16.2483 98.1138 22.7189 C 112.391 40.9077 111.936 70.6294 98.1016 88.8783 C 91.192 97.9925 80.0423 103.811 69.7691 107.773 C 66.1074 109.185 62.1622 110.802 58.2767 111.348 C 59.4189 111.847 60.668 111.382 61.8681 111.351 C 65.4311 111.26 68.9197 110.757 72.4028 109.956 C 87.6485 106.449 102.176 96.1845 108.454 80.8893 C 116.572 61.1109 115.698 35.3681 101.333 18.7244 C 95.8244 12.3428 88.8962 7.51541 81.2616 4.35651 C 74.1 1.39334 66.1971 0.0052955 58.5161 1.51744e-05 Z" id="wave-l"/>
      <path d="M 60.9104 1.51744e-05 L 60.9104 0.249673 C 67.9036 1.23163 75.2435 4.66497 81.501 7.92743 C 88.6177 11.6378 95.429 16.2483 100.508 22.7189 C 114.785 40.9077 114.33 70.6294 100.496 88.8783 C 93.5863 97.9925 82.4366 103.811 72.1634 107.773 C 68.5017 109.185 64.5564 110.802 60.6709 111.348 C 61.8132 111.847 63.0623 111.382 64.2623 111.351 C 67.8253 111.26 71.314 110.757 74.7971 109.956 C 90.0427 106.449 104.57 96.1845 110.848 80.8893 C 118.966 61.1109 118.092 35.3681 103.727 18.7244 C 98.2186 12.3428 91.2905 7.51541 83.6558 4.35651 C 76.4942 1.39334 68.5914 0.0052955 60.9104 1.51744e-05 Z" id="wave-r"/>
    </g>
    <path d="M 218.063 73.4672 L 215.417 81.1401 C 225.338 85.2706 246.374 87.6043 246.374 71.6151 C 246.374 69.7157 246.099 67.8284 245.38 66.0589 C 242.196 58.2309 232.572 59.6909 227.335 54.654 C 225.406 52.7978 225.583 49.9928 228.118 48.7469 C 230.24 47.7036 233.258 47.8889 235.526 48.2669 C 237.659 48.6224 239.546 49.6189 241.611 50.1839 L 244.257 42.7756 C 235.301 38.0059 216.278 38.1682 216.211 52.036 C 216.203 53.6748 216.201 55.2346 216.764 56.7985 C 219.913 65.5376 230.776 63.2108 235.686 69.4995 C 237.858 72.2816 235.516 75.1667 232.615 75.875 C 227.664 77.084 222.563 75.3382 218.063 73.4672 M 97.1487 41.4526 L 97.1487 83.5214 L 106.674 83.5214 L 106.674 69.2339 C 112.542 69.2339 119.325 69.272 124.401 65.8607 C 131.078 61.373 131.645 49.2371 125.195 44.2383 C 117.475 38.2556 105.995 40.7545 97.1487 41.4526 M 132.074 41.4526 L 132.074 83.5214 L 141.599 83.5214 L 141.599 69.2339 C 147.467 69.2339 154.25 69.272 159.326 65.8607 C 166.003 61.373 166.57 49.2371 160.12 44.2383 C 152.4 38.2556 140.92 40.7545 132.074 41.4526 M 166.999 41.4526 L 166.999 83.5214 L 176.524 83.5214 L 176.524 67.911 C 177.86 67.911 180.021 67.4994 181.21 68.1829 C 186.258 71.0852 186.809 79.464 190.979 83.0972 C 191.734 83.7549 193.061 83.5214 193.986 83.5214 L 201.659 83.5214 C 199.737 76.8492 194.355 71.8474 191.34 65.7943 C 200.87 63.9568 201.454 49.3892 194.78 44.2385 C 187.097 38.3092 175.786 40.7592 166.999 41.4526 M 203.247 40.9235 L 203.247 83.5214 L 212.772 83.5214 L 212.772 40.9235 Z M 249.284 40.9235 L 249.284 83.5214 L 277.595 83.5214 L 277.595 75.3193 L 258.809 75.3193 L 258.809 65.2652 L 275.742 65.2652 L 275.742 57.3277 L 258.809 57.3277 L 258.809 49.1256 L 277.595 49.1256 L 277.595 40.9235 Z M 106.674 61.0318 L 106.674 48.5964 C 109.89 48.5964 113.736 48.0562 116.728 49.4967 C 120.262 51.1983 121.114 57.015 117.761 59.4157 C 114.72 61.5935 110.191 61.0318 106.674 61.0318 M 141.599 61.0318 L 141.599 48.5964 C 144.815 48.5964 148.661 48.0562 151.653 49.4967 C 155.187 51.1983 156.039 57.015 152.686 59.4157 C 149.645 61.5935 145.116 61.0318 141.599 61.0318 M 176.524 60.2381 L 176.524 48.5964 C 179.853 48.5964 183.805 48.0899 186.842 49.765 C 190.179 51.6054 190.343 56.8817 187.106 58.9166 C 184.136 60.7837 179.858 60.2381 176.524 60.2381 Z" id="wordmark"/>
    <path d="M 17.4579 39.9885 C 19.9573 50.3664 20.8801 61.6722 22.2204 72.2676 L 38.8891 69.8864 C 36.2588 74.1833 33.6106 78.4801 31.1047 82.851 C 30.0752 84.6467 28.2247 86.8178 28.0728 88.9364 C 27.8021 92.7123 35.521 97.2699 38.597 94.6529 C 40.3444 93.1662 41.5006 90.3795 42.6329 88.4072 C 44.8211 84.5955 47.1682 80.8932 49.2689 77.0301 C 50.1557 75.3994 51.7663 70.9032 53.7164 70.4668 C 55.6526 70.0335 58.4446 71.2858 60.3204 71.7385 C 67.3547 73.436 74.3012 76.543 80.4287 80.3577 C 83.4605 82.2451 88.0584 86.3575 91.1039 82.0532 C 92.1197 80.6175 91.7629 78.9129 91.5412 77.2947 C 91.0692 73.8501 90.4815 70.423 90.0282 66.976 C 88.1925 53.0152 85.8226 39.1246 83.943 25.1718 C 83.4125 21.2339 83.4376 16.1679 81.977 12.472 C 81.3751 10.9491 79.7869 9.96016 78.1597 9.95787 C 74.9703 9.95337 73.3123 13.3391 71.4092 15.3822 C 67.3017 19.792 62.8603 23.7387 57.9391 27.2107 C 45.6111 35.9082 32.0739 38.1397 17.4579 39.9885 M 74.0787 34.1677 L 76.9891 61.9489 L 56.8808 61.9489 C 59.5885 55.4795 64.1791 49.3716 67.8812 43.4281 C 69.6944 40.5171 71.4629 36.3932 74.0787 34.1677 M 14.0183 72.7968 C 13.2093 62.546 11.4037 51.9493 9.52036 41.8406 C 0.437735 44.7157 -2.2689 56.9039 1.93012 64.5947 C 4.47809 69.2616 8.93882 71.8112 14.0183 72.7968 Z" id="mark"/>
  </g>
</svg>
